<?xml version="1.0" standalone="no"?>
<!DOCTYPE svg PUBLIC "-//W3C//DTD SVG 20010904//EN"
 "http://www.w3.org/TR/2001/REC-SVG-20010904/DTD/svg10.dtd">
<svg version="1.0" xmlns="http://www.w3.org/2000/svg"
 width="433.000000pt" height="433.000000pt" viewBox="0 0 433.000000 433.000000"
 preserveAspectRatio="xMidYMid meet">
<metadata>
Created by potrace 1.11, written by Peter Selinger 2001-2013
</metadata>
<g transform="translate(0.000000,433.000000) scale(0.100000,-0.100000)"
fill="#000000" stroke="none">
<path d="M1895 4324 c-16 -3 -85 -16 -151 -29 -396 -81 -751 -274 -1043 -566
-350 -351 -551 -777 -601 -1278 -14 -139 -13 -250 4 -406 68 -628 411 -1182
950 -1534 183 -119 464 -233 691 -280 363 -74 744 -50 1099 70 590 200 1081
689 1284 1279 81 236 112 423 112 684 0 351 -69 639 -228 949 -281 550 -789
939 -1412 1083 -107 25 -133 26 -395 29 -154 2 -293 1 -310 -1z m425 -226 c0
-43 -2 -78 -4 -78 -2 0 -15 18 -30 40 -43 65 -116 68 -142 5 -17 -41 -18 -138
-2 -168 34 -65 120 -61 173 9 14 18 14 17 15 -11 0 -64 -63 -125 -130 -125
-44 0 -102 33 -124 71 -24 40 -33 157 -17 216 13 46 53 100 85 114 12 4 56 7
98 6 l78 -2 0 -77z m-470 -96 c41 -70 90 -146 108 -170 18 -24 30 -47 27 -51
-2 -5 -21 -12 -41 -15 -19 -4 -42 -10 -50 -13 -10 -4 -14 3 -14 23 0 51 -8 54
-83 36 -72 -17 -80 -28 -52 -69 15 -21 14 -22 -27 -33 -24 -6 -51 -14 -62 -17
-13 -3 -16 -1 -11 7 9 14 34 273 35 352 0 56 1 58 33 67 17 5 39 9 47 10 9 0
46 -52 90 -127z m813 113 l34 -7 6 -176 c4 -97 11 -192 16 -209 5 -18 7 -33 5
-33 -17 0 -101 24 -109 31 -5 6 -4 14 3 21 7 7 12 21 12 33 0 18 -11 24 -66
37 l-65 16 -9 -24 c-5 -13 -7 -31 -3 -40 5 -12 2 -15 -13 -11 -10 3 -39 11
-63 17 l-44 11 31 32 c32 35 202 294 202 310 0 5 6 7 14 4 8 -3 30 -9 49 -12z
m389 -150 c95 -52 123 -79 138 -135 13 -48 3 -91 -34 -154 -54 -92 -127 -130
-203 -106 -44 15 -182 92 -183 102 0 4 9 9 20 13 25 8 183 283 176 308 -2 9
-2 17 0 17 2 0 41 -20 86 -45z m-1768 -259 c49 -70 97 -131 108 -135 17 -6 12
-12 -36 -44 l-56 -37 0 25 c0 36 -166 282 -197 292 -23 8 -22 10 29 46 l53 37
6 -29 c3 -16 45 -86 93 -155z m2325 -174 c3 -1 -16 -24 -42 -50 l-47 -47 0 33
c0 39 -13 67 -48 105 -32 34 -52 34 -82 2 l-24 -25 28 -29 c15 -16 41 -32 57
-37 l30 -9 -44 -44 -45 -43 -6 30 c-4 16 -20 42 -36 57 l-30 29 -30 -29 c-37
-36 -38 -64 -2 -97 36 -36 79 -51 122 -43 l35 6 -53 -54 -53 -54 -109 111
c-106 108 -108 111 -82 118 34 9 239 214 247 246 6 24 11 20 108 -74 56 -54
104 -100 106 -102z m-2547 29 c71 -64 121 -101 136 -101 30 0 28 -8 -18 -58
l-39 -43 -16 33 c-15 29 -195 199 -195 184 0 -11 143 -241 157 -253 12 -9 9
-17 -17 -47 -29 -33 -33 -34 -53 -21 -12 8 -76 39 -142 69 l-120 56 45 -41
c98 -90 147 -128 173 -134 l27 -7 -37 -42 c-46 -51 -49 -52 -57 -24 -8 29
-229 221 -262 228 -25 5 -24 6 25 61 l50 56 58 -28 c112 -54 193 -88 193 -82
0 11 -120 201 -135 213 -13 11 -7 21 37 72 l52 60 13 -25 c7 -14 63 -71 125
-126z m1178 79 c22 -14 4 -24 -37 -22 -42 3 -56 10 -48 23 8 12 66 11 85 -1z
m-132 -12 c-3 -8 -21 -13 -43 -13 -22 0 -40 5 -42 13 -3 8 9 12 42 12 33 0 45
-4 43 -12z m271 -4 c12 -11 -17 -21 -51 -17 -25 4 -38 10 -38 20 0 13 8 14 42
9 23 -4 44 -9 47 -12z m-399 -3 c0 -13 -9 -18 -53 -26 -30 -6 -37 -4 -37 8 0
9 10 18 23 20 41 8 67 7 67 -2z m524 -22 c17 -15 -1 -21 -43 -14 -27 4 -41 12
-41 22 0 12 8 14 38 8 20 -3 41 -11 46 -16z m-654 -8 c0 -13 -9 -18 -53 -26
-30 -6 -37 -4 -37 8 0 9 8 18 18 20 32 9 72 7 72 -2z m755 -15 c35 -15 47 -36
21 -36 -28 0 -76 23 -76 36 0 18 12 18 55 0z m-890 -35 c-19 -16 -74 -30 -81
-20 -8 13 -5 15 36 33 35 14 65 6 45 -13z m1015 -16 c28 -15 40 -35 21 -35
-19 0 -81 31 -81 40 0 15 27 12 60 -5z m-1130 -25 c0 -11 -53 -40 -75 -40 -24
0 -18 18 13 34 31 17 62 20 62 6z m1244 -31 c38 -22 47 -39 20 -39 -22 0 -75
40 -69 51 8 12 9 12 49 -12z m-1364 -31 c0 -13 -53 -48 -71 -48 -19 0 -8 26
19 42 33 20 52 22 52 6z m1476 -39 c34 -20 41 -33 26 -43 -12 -7 -72 34 -72
50 0 19 7 18 46 -7z m-1586 -33 c0 -8 -13 -24 -29 -35 -55 -40 -72 -19 -18 23
37 29 47 32 47 12z m2405 -60 l36 -64 -101 -98 c-55 -53 -99 -99 -97 -100 3
-3 218 36 257 47 9 3 26 -17 47 -56 39 -72 39 -75 11 -75 -32 0 -279 -127
-304 -156 l-20 -25 -27 49 c-15 28 -27 52 -27 56 0 3 14 6 31 6 26 0 256 107
247 115 -6 5 -273 -45 -290 -55 -15 -8 -21 -3 -38 29 l-20 40 113 110 112 111
-100 -51 c-55 -28 -113 -65 -128 -81 -16 -16 -30 -28 -32 -26 -1 1 -14 27 -29
56 l-26 52 32 0 c44 0 299 135 305 161 3 11 7 19 9 19 2 0 19 -29 39 -64z
m-712 9 c29 -28 35 -45 14 -45 -17 0 -69 54 -60 63 10 11 17 9 46 -18z m-1793
-33 c0 -5 -13 -21 -29 -36 -40 -38 -62 -24 -25 15 26 28 54 38 54 21z m1894
-63 c37 -43 21 -58 -20 -18 -30 29 -36 49 -14 49 4 0 20 -14 34 -31z m-1990
-27 c8 -14 -52 -78 -63 -67 -7 7 -2 21 15 43 25 32 39 39 48 24z m2075 -71
c39 -55 19 -72 -23 -19 -23 30 -26 48 -6 48 5 0 18 -13 29 -29z m-869 -131 l0
-150 -375 0 -375 0 0 -165 0 -165 205 0 205 0 0 -100 0 -100 -205 0 -205 0 0
-180 0 -180 148 0 147 1 86 157 c273 498 375 682 379 682 5 0 720 -1298 728
-1321 3 -6 -61 -8 -169 -7 l-173 3 -190 348 c-104 191 -193 347 -196 347 -4 0
-32 -46 -63 -102 l-56 -103 55 -3 54 -3 0 -149 0 -150 -138 0 -138 0 -51 -92
-51 -93 -171 -3 c-94 -1 -171 1 -171 5 0 5 22 46 49 93 l49 85 -214 3 -214 2
0 745 0 745 525 0 525 0 0 -150z m-1734 11 c61 -28 116 -51 122 -51 14 0 32
32 32 57 0 10 -9 35 -20 56 -11 20 -18 37 -16 37 2 0 32 -13 68 -30 l63 -30
-53 -110 -53 -110 -22 25 c-30 34 -281 148 -312 143 -26 -5 -26 -4 15 85 l13
27 26 -24 c14 -13 76 -47 137 -75z m436 62 c-15 -27 -49 -56 -56 -45 -9 14 45
85 56 74 6 -6 6 -16 0 -29z m2246 -55 c20 -31 20 -48 2 -48 -8 0 -50 61 -50
74 0 18 31 2 48 -26z m-2308 -34 c0 -13 -42 -74 -51 -74 -14 0 -11 28 7 55 15
22 44 35 44 19z m2373 -80 c19 -38 14 -62 -8 -44 -16 13 -36 66 -28 74 12 12
20 5 36 -30z m-2443 -39 c0 -22 -29 -75 -40 -75 -15 0 -12 27 5 60 17 32 35
40 35 15z m2496 -80 c16 -40 18 -55 4 -55 -11 0 -40 53 -40 75 0 27 21 16 36
-20z m-2969 6 c10 -5 7 -11 -13 -22 -28 -14 -64 -79 -64 -114 0 -31 12 -43 51
-50 36 -7 36 -6 43 33 3 23 2 52 -4 66 -11 30 -10 30 59 15 l50 -11 -20 -27
c-11 -14 -22 -43 -25 -63 l-6 -35 48 -8 c60 -9 74 7 74 83 0 43 -5 62 -24 87
l-25 32 74 -15 c63 -12 73 -17 66 -31 -5 -9 -19 -65 -31 -126 -33 -169 -30
-158 -49 -140 -10 8 -87 29 -171 46 -123 25 -158 29 -178 20 -22 -11 -24 -10
-19 8 3 11 16 77 28 147 l24 126 49 -7 c28 -3 56 -10 63 -14z m3528 -23 c3
-24 9 -51 11 -60 4 -13 0 -18 -16 -18 -25 0 -52 -13 -99 -49 l-34 -25 49 -13
c62 -16 101 -16 110 -1 5 8 13 -14 20 -52 6 -36 10 -66 9 -68 -2 -2 -14 2 -27
9 -12 7 -74 27 -135 45 -99 28 -119 30 -160 22 -27 -6 -55 -17 -65 -25 -20
-18 -24 -11 -32 52 l-7 50 65 0 c62 1 68 3 150 59 47 33 97 72 112 88 15 15
31 28 35 28 4 0 10 -19 14 -42z m-3105 -33 c0 -9 -7 -30 -16 -47 -23 -44 -40
-22 -20 26 15 37 36 49 36 21z m2592 -81 c9 -34 2 -62 -13 -47 -13 13 -29 70
-21 77 11 12 26 -1 34 -30z m-2632 -48 c0 -14 -5 -37 -10 -52 -8 -20 -14 -24
-22 -16 -8 8 -8 22 1 52 13 44 31 53 31 16z m2662 -87 c4 -42 -8 -62 -23 -38
-14 23 -11 79 5 79 9 0 15 -14 18 -41z m-2688 -74 c-10 -42 -30 -44 -28 -2 3
43 13 62 26 49 7 -7 7 -23 2 -47z m2701 -60 c0 -22 -5 -40 -12 -42 -9 -3 -13
9 -13 42 0 33 4 45 13 43 7 -3 12 -21 12 -43z m-2713 -76 c-3 -49 -8 -57 -23
-42 -13 13 0 95 15 90 6 -3 10 -22 8 -48z m2718 -54 c0 -33 -4 -45 -15 -45
-11 0 -15 11 -15 38 0 21 3 42 7 45 16 16 23 4 23 -38z m-2710 -81 c0 -59 -24
-55 -28 4 -2 33 0 42 12 42 12 0 16 -11 16 -46z m2701 -16 c3 -31 -3 -74 -12
-82 -13 -14 -22 20 -15 59 7 33 25 49 27 23z m-2863 -70 c8 -8 12 -50 12 -125
0 -136 3 -133 -139 -133 l-101 0 0 25 0 25 105 0 105 0 0 95 0 95 -150 0
c-137 0 -163 4 -143 23 12 13 298 8 311 -5z m3370 -120 c3 -150 13 -141 -138
-136 -90 3 -95 4 -98 26 -3 22 -2 22 107 22 l111 0 0 95 0 95 -155 0 c-142 0
-168 4 -148 24 4 3 77 5 162 4 l156 -3 3 -127z m-3194 91 c9 -47 7 -59 -8 -59
-14 0 -30 66 -20 82 10 16 22 7 28 -23z m-436 -21 c14 -14 17 -265 3 -286 -5
-9 -25 -12 -57 -10 l-49 3 -3 140 c-1 76 0 145 2 152 7 17 88 17 104 1z m3367
-143 l0 -150 -55 0 -55 0 -3 140 c-1 76 0 145 3 153 3 9 20 12 57 10 l53 -3 0
-150z m-261 108 c-10 -43 -25 -66 -35 -56 -13 13 9 83 27 83 11 0 13 -7 8 -27z
m-2640 -86 c5 -20 6 -40 3 -44 -12 -12 -27 12 -34 52 -8 51 18 44 31 -8z
m2597 -70 c-15 -39 -35 -35 -27 5 3 17 12 38 19 46 10 13 12 13 15 -5 2 -10
-2 -31 -7 -46z m-2553 -54 c15 -48 -1 -66 -22 -25 -19 38 -20 62 -3 62 8 0 19
-17 25 -37z m-368 2 c0 -8 5 -15 10 -15 6 0 10 -4 10 -10 0 -6 -27 -10 -60
-10 -33 0 -60 4 -60 10 0 6 5 10 10 10 6 0 10 7 10 15 0 11 11 15 40 15 29 0
40 -4 40 -15z m3366 -2 c22 -29 17 -33 -41 -33 -60 0 -61 1 -43 30 16 25 66
27 84 3z m-476 -23 c0 -18 -34 -80 -43 -77 -12 4 -12 14 3 53 12 31 40 48 40
24z m-2482 -73 c19 -22 32 -66 22 -72 -10 -6 -50 51 -50 73 0 16 15 16 28 -1z
m2422 -53 c0 -26 -41 -77 -52 -66 -7 7 -3 22 12 46 23 38 40 46 40 20z m-2345
-84 c30 -57 10 -71 -24 -16 -25 40 -26 46 -6 46 8 0 21 -13 30 -30z m2275 -32
c0 -7 -11 -26 -24 -43 -22 -27 -25 -28 -31 -12 -5 12 0 26 15 43 26 26 40 31
40 12z m-2199 -70 c19 -23 26 -58 11 -58 -10 0 -52 56 -52 70 0 17 21 11 41
-12z m2123 -26 c8 -14 -49 -76 -62 -68 -9 5 -4 17 14 42 27 34 39 41 48 26z
m-2027 -89 c34 -43 11 -53 -27 -11 -17 18 -30 36 -30 41 0 18 34 1 57 -30z
m1936 -10 c9 -9 -43 -63 -60 -63 -19 0 -16 11 14 42 28 29 35 33 46 21z
m-1851 -70 c30 -29 35 -43 16 -43 -16 0 -58 41 -58 57 0 19 11 16 42 -14z
m1752 -22 c6 -10 -49 -61 -65 -61 -18 0 -8 25 19 47 30 25 38 27 46 14z
m-1789 -82 c239 -207 526 -323 850 -344 172 -11 392 21 559 81 156 56 388 197
475 288 19 20 40 36 46 36 5 0 84 -74 173 -163 l164 -164 -59 -56 c-33 -31
-97 -85 -144 -120 -264 -199 -544 -314 -879 -363 -170 -24 -471 -15 -635 20
-242 51 -472 148 -676 284 -97 65 -279 215 -279 230 0 8 322 332 330 332 3 -1
37 -28 75 -61z m146 20 c31 -22 38 -39 15 -39 -16 0 -66 38 -66 51 0 15 20 10
51 -12z m1539 -22 c0 -13 -50 -47 -69 -47 -22 0 -10 21 22 40 38 23 47 25 47
7z m-1426 -48 c33 -19 40 -39 14 -39 -18 0 -68 41 -63 51 8 12 9 12 49 -12z
m1311 -19 c3 -5 -12 -18 -34 -30 -26 -13 -42 -16 -46 -9 -8 12 -9 12 30 32 36
19 42 20 50 7z m-1163 -72 c-6 -6 -21 -4 -43 7 -43 22 -42 22 -34 34 4 7 20 4
47 -10 27 -14 37 -24 30 -31z m1048 12 c0 -10 -17 -19 -67 -34 -34 -11 -30 20
5 32 36 14 62 14 62 2z m-922 -48 c5 -15 -16 -15 -57 -1 -30 11 -37 19 -25 32
8 8 77 -18 82 -31z m789 1 c5 -13 -65 -36 -79 -27 -17 11 -7 24 25 33 37 11
49 9 54 -6z m-694 -14 c35 -9 44 -19 32 -31 -11 -11 -85 14 -85 28 0 17 4 17
53 3z m563 -28 c-10 -16 -89 -14 -84 2 5 14 69 27 82 16 4 -4 5 -12 2 -18z
m-398 -9 c3 -10 -7 -12 -39 -10 -24 2 -44 9 -47 16 -3 10 7 12 39 10 24 -2 44
-9 47 -16z m269 1 c4 -11 -28 -23 -64 -23 -36 0 -28 28 10 33 41 5 50 3 54
-10z m-132 -8 c0 -11 -59 -19 -82 -11 -8 3 -11 11 -8 16 8 14 90 9 90 -5z"/>
<path d="M1746 3964 c-3 -26 -6 -59 -6 -74 0 -28 0 -28 43 -17 23 5 43 11 45
12 3 2 -68 125 -73 125 -1 0 -5 -21 -9 -46z"/>
<path d="M2577 3949 c-21 -33 -37 -62 -35 -64 7 -7 82 -24 86 -20 3 2 1 36 -4
75 l-9 71 -38 -62z"/>
<path d="M3007 3878 c-48 -79 -107 -189 -107 -201 0 -17 58 -47 89 -47 29 0
86 53 110 104 35 72 25 123 -29 151 -39 20 -47 19 -63 -7z"/>
<path d="M500 1850 c0 -5 5 -10 10 -10 6 0 10 5 10 10 0 6 -4 10 -10 10 -5 0
-10 -4 -10 -10z"/>
<path d="M3865 1850 c-3 -5 -1 -10 4 -10 6 0 11 5 11 10 0 6 -2 10 -4 10 -3 0
-8 -4 -11 -10z"/>
<path d="M320 2000 c0 -5 16 -10 35 -10 19 0 35 5 35 10 0 6 -16 10 -35 10
-19 0 -35 -4 -35 -10z"/>
<path d="M320 1955 c0 -10 11 -15 35 -15 24 0 35 5 35 15 0 10 -11 15 -35 15
-24 0 -35 -5 -35 -15z"/>
<path d="M325 1810 c3 -5 8 -10 11 -10 2 0 4 5 4 10 0 6 -5 10 -11 10 -5 0 -7
-4 -4 -10z"/>
<path d="M3680 2000 c0 -5 15 -10 34 -10 19 0 38 5 41 10 4 6 -10 10 -34 10
-23 0 -41 -4 -41 -10z"/>
<path d="M3685 1960 c-3 -5 0 -13 9 -16 21 -8 61 -1 61 11 0 14 -62 19 -70 5z"/>
<path d="M3690 1809 c0 -5 5 -7 10 -4 6 3 10 8 10 11 0 2 -4 4 -10 4 -5 0 -10
-5 -10 -11z"/>
<path d="M2998 895 l-36 -24 34 -38 c19 -20 36 -45 40 -55 4 -14 9 -16 24 -8
19 10 19 11 -1 31 -28 28 -9 51 20 25 12 -11 27 -16 37 -12 15 6 13 10 -14 29
-17 12 -32 30 -32 39 0 33 -34 39 -72 13z m48 -16 c10 -17 -13 -36 -27 -22
-12 12 -4 33 11 33 5 0 12 -5 16 -11z"/>
<path d="M1409 837 c-7 -12 -25 -38 -40 -58 -25 -32 -27 -38 -13 -43 9 -4 18
-5 19 -4 1 2 11 19 23 39 26 43 60 75 49 47 -5 -13 -1 -18 13 -18 26 0 25 -4
-9 -55 -25 -38 -27 -46 -15 -56 8 -6 15 -10 17 -8 1 2 13 25 26 52 26 51 41
60 41 25 1 -22 1 -23 15 -4 21 27 19 32 -16 46 -17 7 -46 24 -65 36 l-34 23
-11 -22z"/>
<path d="M2910 833 c-19 -13 -57 -36 -85 -50 -62 -31 -59 -28 -47 -48 8 -16 9
-16 16 0 9 23 28 7 51 -45 10 -22 22 -40 26 -40 19 0 17 21 -6 62 -30 52 -31
62 -5 55 17 -4 20 -2 15 14 -11 33 2 21 37 -34 l33 -53 41 26 c34 21 40 29 32
43 -9 16 -11 16 -29 -8 -24 -29 -34 -31 -43 -9 -4 10 1 22 10 29 10 6 14 17
10 24 -5 8 -12 7 -23 -5 -13 -12 -17 -13 -24 -2 -10 15 19 41 38 34 17 -7 17
8 1 22 -9 7 -23 3 -48 -15z"/>
<path d="M1586 734 c-4 -12 -2 -15 9 -11 25 10 26 -10 3 -58 -19 -39 -20 -47
-8 -55 11 -7 18 2 32 37 23 62 35 72 47 42 5 -13 10 -19 10 -12 1 6 3 18 6 26
4 9 -8 19 -37 30 -54 21 -54 21 -62 1z"/>
<path d="M2743 743 c-10 -4 -9 -11 2 -33 22 -43 18 -47 -14 -16 -20 19 -35 26
-49 22 -18 -6 -18 -8 4 -54 13 -26 24 -55 24 -65 0 -14 4 -16 20 -7 19 10 19
11 -1 45 -26 43 -20 44 24 6 20 -19 38 -27 46 -22 16 11 -38 131 -56 124z"/>
<path d="M1681 648 c-16 -48 -18 -64 -8 -70 8 -5 15 1 20 17 13 38 37 32 37
-9 0 -30 4 -34 32 -40 19 -4 34 -2 39 5 9 15 44 7 44 -11 0 -8 9 -16 19 -18
15 -3 18 0 13 19 -4 13 -7 45 -7 70 0 68 -20 69 -64 3 -20 -30 -41 -54 -46
-54 -11 0 -1 63 12 68 4 2 8 15 8 28 0 19 -8 29 -35 40 -19 7 -36 14 -39 14
-2 0 -14 -28 -25 -62z m66 17 c7 -20 -2 -29 -21 -22 -9 4 -13 13 -10 22 8 19
23 19 31 0z m103 -65 c0 -11 -7 -20 -15 -20 -18 0 -19 12 -3 28 16 16 18 15
18 -8z"/>
<path d="M2592 687 c-23 -7 -32 -15 -29 -26 3 -9 11 -38 18 -66 7 -27 14 -51
14 -52 4 -9 95 31 95 41 0 22 -13 26 -31 10 -19 -17 -49 -13 -49 7 0 6 9 13
20 16 11 3 20 9 20 12 0 15 -13 20 -30 11 -13 -7 -20 -6 -24 6 -7 18 16 28 45
21 15 -4 19 -2 15 10 -3 8 -6 17 -6 19 0 6 -22 3 -58 -9z"/>
<path d="M2507 662 c-33 -4 -51 -34 -43 -75 12 -61 57 -85 89 -49 24 26 23 50
-1 29 -24 -22 -39 -21 -52 2 -24 46 1 89 35 61 12 -10 15 -10 15 1 0 24 -14
34 -43 31z"/>
<path d="M1916 596 c-3 -30 -9 -61 -12 -70 -4 -11 0 -16 13 -16 14 0 19 8 21
33 1 19 6 47 11 65 8 28 0 42 -23 42 -2 0 -6 -24 -10 -54z"/>
<path d="M1974 570 c-9 -63 -8 -70 8 -70 13 0 18 10 20 43 l3 42 16 -45 c20
-56 49 -67 49 -18 0 18 4 50 9 71 8 33 7 37 -10 37 -16 0 -19 -8 -20 -42 l0
-43 -17 45 c-27 70 -46 64 -58 -20z"/>
<path d="M2306 608 c-19 -27 -20 -48 -4 -82 13 -30 36 -39 72 -30 22 5 26 12
26 40 0 26 -4 34 -19 34 -14 0 -17 -6 -13 -25 3 -20 0 -25 -17 -25 -23 0 -37
35 -26 69 7 23 34 28 53 9 9 -9 12 -7 12 10 0 18 -6 22 -34 22 -25 0 -39 -7
-50 -22z"/>
<path d="M2108 555 c-2 -53 0 -65 12 -65 12 0 16 15 18 65 3 52 0 65 -11 65
-12 0 -16 -16 -19 -65z"/>
<path d="M2168 550 c3 -58 7 -70 21 -70 13 0 16 8 13 43 l-3 42 21 -37 c32
-60 50 -50 50 27 0 56 -2 65 -18 65 -15 0 -18 -6 -15 -32 l3 -33 -17 33 c-10
20 -24 32 -37 32 -20 0 -21 -5 -18 -70z"/>
</g>
</svg>
